<svg width="61" height="33" viewBox="0 0 61 33" fill="none" xmlns="http://www.w3.org/2000/svg">
<mask id="path-1-outside-1_57_2" maskUnits="userSpaceOnUse" x="0" y="0" width="61" height="33" fill="black">
<rect fill="white" width="61" height="33"/>
<path d="M10.872 1.36364H13.3038V9.47727C13.3038 10.2273 13.1353 10.8788 12.7982 11.4318C12.4648 11.9848 12.0008 12.411 11.4061 12.7102C10.8114 13.0095 10.1201 13.1591 9.33224 13.1591C8.63149 13.1591 7.99512 13.036 7.42315 12.7898C6.85497 12.5398 6.40421 12.161 6.07088 11.6534C5.73755 11.142 5.57278 10.5 5.57656 9.72727H8.02543C8.033 10.0341 8.0955 10.2973 8.21293 10.517C8.33414 10.733 8.49891 10.8996 8.70724 11.017C8.91937 11.1307 9.16937 11.1875 9.45724 11.1875C9.76028 11.1875 10.016 11.1231 10.2243 10.9943C10.4364 10.8617 10.5974 10.6686 10.7072 10.4148C10.8171 10.161 10.872 9.84848 10.872 9.47727V1.36364ZM24.1254 1.36364H26.5857V8.92045C26.5857 9.76894 26.383 10.5114 25.9777 11.1477C25.5762 11.7841 25.0137 12.2803 24.2902 12.6364C23.5667 12.9886 22.7239 13.1648 21.7618 13.1648C20.7959 13.1648 19.9512 12.9886 19.2277 12.6364C18.5042 12.2803 17.9417 11.7841 17.5402 11.1477C17.1387 10.5114 16.9379 9.76894 16.9379 8.92045V1.36364H19.3982V8.71023C19.3982 9.15341 19.4947 9.54735 19.6879 9.89205C19.8849 10.2367 20.1614 10.5076 20.5175 10.7045C20.8735 10.9015 21.2883 11 21.7618 11C22.2391 11 22.6538 10.9015 23.0061 10.7045C23.3622 10.5076 23.6368 10.2367 23.83 9.89205C24.0269 9.54735 24.1254 9.15341 24.1254 8.71023V1.36364ZM30.2098 1.36364H33.2439L36.4484 9.18182H36.5848L39.7893 1.36364H42.8234V13H40.4371V5.42614H40.3405L37.3291 12.9432H35.7041L32.6928 5.39773H32.5962V13H30.2098V1.36364ZM46.4504 13V1.36364H51.0413C51.9239 1.36364 52.6758 1.5322 53.297 1.86932C53.9182 2.20265 54.3917 2.66667 54.7175 3.26136C55.047 3.85227 55.2118 4.53409 55.2118 5.30682C55.2118 6.07955 55.0451 6.76136 54.7118 7.35227C54.3785 7.94318 53.8955 8.40341 53.2629 8.73295C52.6341 9.0625 51.8728 9.22727 50.9788 9.22727H48.0527V7.25568H50.5811C51.0546 7.25568 51.4447 7.17424 51.7516 7.01136C52.0622 6.8447 52.2932 6.61553 52.4447 6.32386C52.6 6.02841 52.6777 5.68939 52.6777 5.30682C52.6777 4.92045 52.6 4.58333 52.4447 4.29545C52.2932 4.00379 52.0622 3.77841 51.7516 3.61932C51.441 3.45644 51.047 3.375 50.5697 3.375H48.9107V13H46.4504ZM8.17074 23.7102C8.12528 23.2519 7.93021 22.8958 7.58551 22.642C7.24081 22.3883 6.77301 22.2614 6.1821 22.2614C5.78059 22.2614 5.44157 22.3182 5.16506 22.4318C4.88854 22.5417 4.67642 22.6951 4.52869 22.892C4.38475 23.089 4.31278 23.3125 4.31278 23.5625C4.30521 23.7708 4.34877 23.9527 4.44347 24.108C4.54195 24.2633 4.67642 24.3977 4.84687 24.5114C5.01733 24.6212 5.2143 24.7178 5.43778 24.8011C5.66127 24.8807 5.8999 24.9489 6.15369 25.0057L7.19915 25.2557C7.70672 25.3693 8.17263 25.5208 8.59687 25.7102C9.02112 25.8996 9.38854 26.1326 9.69915 26.4091C10.0098 26.6856 10.2503 27.0114 10.4207 27.3864C10.595 27.7614 10.684 28.1913 10.6878 28.6761C10.684 29.3883 10.5022 30.0057 10.1423 30.5284C9.78627 31.0473 9.27112 31.4508 8.59687 31.7386C7.92642 32.0227 7.11771 32.1648 6.17074 32.1648C5.23134 32.1648 4.41316 32.0208 3.71619 31.733C3.02301 31.4451 2.48134 31.0189 2.09119 30.4545C1.70483 29.8864 1.50218 29.1837 1.48324 28.3466H3.86392C3.89043 28.7367 4.00218 29.0625 4.19915 29.3239C4.3999 29.5814 4.66695 29.7765 5.00028 29.9091C5.3374 30.0379 5.71809 30.1023 6.14233 30.1023C6.559 30.1023 6.92074 30.0417 7.22756 29.9205C7.53816 29.7992 7.77869 29.6307 7.94915 29.4148C8.1196 29.1989 8.20483 28.9508 8.20483 28.6705C8.20483 28.4091 8.12718 28.1894 7.97187 28.0114C7.82036 27.8333 7.59687 27.6818 7.30142 27.5568C7.00975 27.4318 6.6518 27.3182 6.22756 27.2159L4.96051 26.8977C3.97945 26.6591 3.20483 26.286 2.63665 25.7784C2.06847 25.2708 1.78627 24.5871 1.79006 23.7273C1.78627 23.0227 1.97377 22.4072 2.35256 21.8807C2.73513 21.3542 3.25975 20.9432 3.92642 20.6477C4.59309 20.3523 5.35066 20.2045 6.19915 20.2045C7.06278 20.2045 7.81657 20.3523 8.46051 20.6477C9.10824 20.9432 9.61203 21.3542 9.97187 21.8807C10.3317 22.4072 10.5173 23.017 10.5287 23.7102H8.17074ZM13.4994 22.392V20.3636H23.0562V22.392H19.4937V32H17.0619V22.392H13.4994ZM26.8139 32H24.1776L28.1946 20.3636H31.3651L35.3764 32H32.7401L29.8253 23.0227H29.7344L26.8139 32ZM26.6491 27.4261H32.8764V29.3466H26.6491V27.4261ZM38.377 32V20.3636H42.9679C43.8467 20.3636 44.5967 20.5208 45.2179 20.8352C45.8429 21.1458 46.3183 21.5871 46.644 22.1591C46.9736 22.7273 47.1384 23.3958 47.1384 24.1648C47.1384 24.9375 46.9717 25.6023 46.6384 26.1591C46.305 26.7121 45.8221 27.1364 45.1895 27.4318C44.5607 27.7273 43.7993 27.875 42.9054 27.875H39.8315V25.8977H42.5077C42.9774 25.8977 43.3675 25.8333 43.6781 25.7045C43.9887 25.5758 44.2198 25.3826 44.3713 25.125C44.5266 24.8674 44.6043 24.5473 44.6043 24.1648C44.6043 23.7784 44.5266 23.4527 44.3713 23.1875C44.2198 22.9223 43.9868 22.7216 43.6724 22.5852C43.3618 22.4451 42.9698 22.375 42.4963 22.375H40.8372V32H38.377ZM44.6611 26.7045L47.5531 32H44.8372L42.0077 26.7045H44.6611ZM50.0338 22.392V20.3636H59.5906V22.392H56.0281V32H53.5963V22.392H50.0338Z"/>
</mask>
<path d="M10.872 1.36364V0.863636H10.372V1.36364H10.872ZM13.3038 1.36364H13.8038V0.863636H13.3038V1.36364ZM12.7982 11.4318L12.3712 11.1716L12.3699 11.1737L12.7982 11.4318ZM11.4061 12.7102L11.1814 12.2636L11.1814 12.2636L11.4061 12.7102ZM7.42315 12.7898L7.22178 13.2474L7.22546 13.249L7.42315 12.7898ZM6.07088 11.6534L5.65201 11.9264L5.65295 11.9279L6.07088 11.6534ZM5.57656 9.72727V9.22727H5.07901L5.07657 9.72482L5.57656 9.72727ZM8.02543 9.72727L8.52527 9.71493L8.51323 9.22727H8.02543V9.72727ZM8.21293 10.517L7.77187 10.7528L7.77693 10.7618L8.21293 10.517ZM8.70724 11.017L8.46168 11.4527L8.47113 11.4578L8.70724 11.017ZM10.2243 10.9943L10.4872 11.4196L10.4893 11.4183L10.2243 10.9943ZM10.7072 10.4148L11.1661 10.6134L11.1661 10.6134L10.7072 10.4148ZM10.872 1.36364V1.86364H13.3038V1.36364V0.863636H10.872V1.36364ZM13.3038 1.36364H12.8038V9.47727H13.3038H13.8038V1.36364H13.3038ZM13.3038 9.47727H12.8038C12.8038 10.1502 12.6534 10.7086 12.3712 11.1716L12.7982 11.4318L13.2251 11.6921C13.6171 11.0489 13.8038 10.3043 13.8038 9.47727H13.3038ZM12.7982 11.4318L12.3699 11.1737C12.0868 11.6434 11.6946 12.0054 11.1814 12.2636L11.4061 12.7102L11.6309 13.1569C12.307 12.8166 12.8428 12.3263 13.2264 11.6899L12.7982 11.4318ZM11.4061 12.7102L11.1814 12.2636C10.6681 12.5219 10.0563 12.6591 9.33224 12.6591V13.1591V13.6591C10.1839 13.6591 10.9547 13.4971 11.6309 13.1569L11.4061 12.7102ZM9.33224 13.1591V12.6591C8.69095 12.6591 8.123 12.5467 7.62085 12.3305L7.42315 12.7898L7.22546 13.249C7.86725 13.5253 8.57202 13.6591 9.33224 13.6591V13.1591ZM7.42315 12.7898L7.62452 12.3321C7.14262 12.1201 6.76792 11.804 6.48882 11.3789L6.07088 11.6534L5.65295 11.9279C6.04051 12.518 6.56733 12.9595 7.22178 13.2474L7.42315 12.7898ZM6.07088 11.6534L6.48975 11.3804C6.2224 10.9702 6.07312 10.4306 6.07656 9.72972L5.57656 9.72727L5.07657 9.72482C5.07243 10.5694 5.2527 11.3139 5.65201 11.9264L6.07088 11.6534ZM5.57656 9.72727V10.2273H8.02543V9.72727V9.22727H5.57656V9.72727ZM8.02543 9.72727L7.52558 9.73961C7.53464 10.1067 7.61019 10.4501 7.77196 10.7527L8.21293 10.517L8.65389 10.2814C8.58081 10.1446 8.53136 9.9615 8.52527 9.71493L8.02543 9.72727ZM8.21293 10.517L7.77693 10.7618C7.94131 11.0546 8.17073 11.2886 8.46174 11.4526L8.70724 11.017L8.95275 10.5815C8.8271 10.5106 8.72697 10.4113 8.64892 10.2723L8.21293 10.517ZM8.70724 11.017L8.47113 11.4578C8.76886 11.6173 9.10309 11.6875 9.45724 11.6875V11.1875V10.6875C9.23565 10.6875 9.06988 10.6441 8.94336 10.5763L8.70724 11.017ZM9.45724 11.1875V11.6875C9.83117 11.6875 10.1831 11.6076 10.4872 11.4196L10.2243 10.9943L9.96138 10.569C9.84886 10.6386 9.68938 10.6875 9.45724 10.6875V11.1875ZM10.2243 10.9943L10.4893 11.4183C10.7964 11.2264 11.0204 10.95 11.1661 10.6134L10.7072 10.4148L10.2484 10.2162C10.1744 10.3872 10.0764 10.4971 9.95929 10.5703L10.2243 10.9943ZM10.7072 10.4148L11.1661 10.6134C11.3107 10.2794 11.372 9.8947 11.372 9.47727H10.872H10.372C10.372 9.80227 10.3235 10.0426 10.2484 10.2162L10.7072 10.4148ZM10.872 9.47727H11.372V1.36364H10.872H10.372V9.47727H10.872ZM24.1254 1.36364V0.863636H23.6254V1.36364H24.1254ZM26.5857 1.36364H27.0857V0.863636H26.5857V1.36364ZM25.9777 11.1477L25.556 10.8791L25.5548 10.8809L25.9777 11.1477ZM24.2902 12.6364L24.5091 13.0859L24.511 13.085L24.2902 12.6364ZM19.2277 12.6364L19.0069 13.085L19.0088 13.0859L19.2277 12.6364ZM17.5402 11.1477L17.1173 11.4145L17.1173 11.4145L17.5402 11.1477ZM16.9379 1.36364V0.863636H16.4379V1.36364H16.9379ZM19.3982 1.36364H19.8982V0.863636H19.3982V1.36364ZM19.6879 9.89205L19.2517 10.1365L19.2538 10.1401L19.6879 9.89205ZM20.5175 10.7045L20.2754 11.1421L20.2754 11.1421L20.5175 10.7045ZM23.0061 10.7045L22.7641 10.267L22.7621 10.2681L23.0061 10.7045ZM23.83 9.89205L23.3958 9.64397L23.3938 9.6476L23.83 9.89205ZM24.1254 1.36364V1.86364H26.5857V1.36364V0.863636H24.1254V1.36364ZM26.5857 1.36364H26.0857V8.92045H26.5857H27.0857V1.36364H26.5857ZM26.5857 8.92045H26.0857C26.0857 9.686 25.904 10.3327 25.556 10.8791L25.9777 11.1477L26.3994 11.4163C26.862 10.69 27.0857 9.85188 27.0857 8.92045H26.5857ZM25.9777 11.1477L25.5548 10.8809C25.2061 11.4336 24.7162 11.8694 24.0694 12.1877L24.2902 12.6364L24.511 13.085C25.3111 12.6912 25.9462 12.1346 26.4006 11.4145L25.9777 11.1477ZM24.2902 12.6364L24.0713 12.1868C23.4281 12.5 22.6627 12.6648 21.7618 12.6648V13.1648V13.6648C22.7851 13.6648 23.7053 13.4773 24.5091 13.0859L24.2902 12.6364ZM21.7618 13.1648V12.6648C20.8567 12.6648 20.0896 12.4999 19.4466 12.1868L19.2277 12.6364L19.0088 13.0859C19.8128 13.4774 20.735 13.6648 21.7618 13.6648V13.1648ZM19.2277 12.6364L19.4485 12.1877C18.8017 11.8694 18.3118 11.4336 17.9631 10.8809L17.5402 11.1477L17.1173 11.4145C17.5717 12.1346 18.2068 12.6912 19.0069 13.085L19.2277 12.6364ZM17.5402 11.1477L17.9631 10.8809C17.6182 10.3343 17.4379 9.6869 17.4379 8.92045H16.9379H16.4379C16.4379 9.85098 16.6592 10.6884 17.1173 11.4145L17.5402 11.1477ZM16.9379 8.92045H17.4379V1.36364H16.9379H16.4379V8.92045H16.9379ZM16.9379 1.36364V1.86364H19.3982V1.36364V0.863636H16.9379V1.36364ZM19.3982 1.36364H18.8982V8.71023H19.3982H19.8982V1.36364H19.3982ZM19.3982 8.71023H18.8982C18.8982 9.22841 19.0118 9.70839 19.2518 10.1365L19.6879 9.89205L20.1241 9.6476C19.9777 9.38631 19.8982 9.07841 19.8982 8.71023H19.3982ZM19.6879 9.89205L19.2538 10.1401C19.4974 10.5664 19.8413 10.9019 20.2754 11.1421L20.5175 10.7045L20.7595 10.267C20.4815 10.1132 20.2724 9.90705 20.122 9.64398L19.6879 9.89205ZM20.5175 10.7045L20.2754 11.1421C20.7169 11.3863 21.2176 11.5 21.7618 11.5V11V10.5C21.359 10.5 21.0302 10.4168 20.7595 10.267L20.5175 10.7045ZM21.7618 11V11.5C22.3089 11.5 22.8107 11.3866 23.2501 11.141L23.0061 10.7045L22.7621 10.2681C22.4969 10.4164 22.1693 10.5 21.7618 10.5V11ZM23.0061 10.7045L23.2481 11.1421C23.6831 10.9015 24.0261 10.5649 24.2661 10.1365L23.83 9.89205L23.3938 9.6476C23.2475 9.90862 23.0413 10.1137 22.7641 10.267L23.0061 10.7045ZM23.83 9.89205L24.2641 10.1401C24.5091 9.71137 24.6254 9.23008 24.6254 8.71023H24.1254H23.6254C23.6254 9.07674 23.5448 9.38333 23.3959 9.64398L23.83 9.89205ZM24.1254 8.71023H24.6254V1.36364H24.1254H23.6254V8.71023H24.1254ZM30.2098 1.36364V0.863636H29.7098V1.36364H30.2098ZM33.2439 1.36364L33.7065 1.17401L33.5793 0.863636H33.2439V1.36364ZM36.4484 9.18182L35.9858 9.37145L36.113 9.68182H36.4484V9.18182ZM36.5848 9.18182V9.68182H36.9202L37.0474 9.37145L36.5848 9.18182ZM39.7893 1.36364V0.863636H39.4539L39.3267 1.17401L39.7893 1.36364ZM42.8234 1.36364H43.3234V0.863636H42.8234V1.36364ZM42.8234 13V13.5H43.3234V13H42.8234ZM40.4371 13H39.9371V13.5H40.4371V13ZM40.4371 5.42614H40.9371V4.92614H40.4371V5.42614ZM40.3405 5.42614V4.92614H40.0022L39.8763 5.2402L40.3405 5.42614ZM37.3291 12.9432V13.4432H37.6674L37.7933 13.1291L37.3291 12.9432ZM35.7041 12.9432L35.2397 13.1285L35.3653 13.4432H35.7041V12.9432ZM32.6928 5.39773L33.1571 5.21239L33.0316 4.89773H32.6928V5.39773ZM32.5962 5.39773V4.89773H32.0962V5.39773H32.5962ZM32.5962 13V13.5H33.0962V13H32.5962ZM30.2098 13H29.7098V13.5H30.2098V13ZM30.2098 1.36364V1.86364H33.2439V1.36364V0.863636H30.2098V1.36364ZM33.2439 1.36364L32.7813 1.55327L35.9858 9.37145L36.4484 9.18182L36.9111 8.99219L33.7065 1.17401L33.2439 1.36364ZM36.4484 9.18182V9.68182H36.5848V9.18182V8.68182H36.4484V9.18182ZM36.5848 9.18182L37.0474 9.37145L40.252 1.55327L39.7893 1.36364L39.3267 1.17401L36.1222 8.99219L36.5848 9.18182ZM39.7893 1.36364V1.86364H42.8234V1.36364V0.863636H39.7893V1.36364ZM42.8234 1.36364H42.3234V13H42.8234H43.3234V1.36364H42.8234ZM42.8234 13V12.5H40.4371V13V13.5H42.8234V13ZM40.4371 13H40.9371V5.42614H40.4371H39.9371V13H40.4371ZM40.4371 5.42614V4.92614H40.3405V5.42614V5.92614H40.4371V5.42614ZM40.3405 5.42614L39.8763 5.2402L36.865 12.7572L37.3291 12.9432L37.7933 13.1291L40.8046 5.61207L40.3405 5.42614ZM37.3291 12.9432V12.4432H35.7041V12.9432V13.4432H37.3291V12.9432ZM35.7041 12.9432L36.1685 12.7578L33.1571 5.21239L32.6928 5.39773L32.2284 5.58306L35.2397 13.1285L35.7041 12.9432ZM32.6928 5.39773V4.89773H32.5962V5.39773V5.89773H32.6928V5.39773ZM32.5962 5.39773H32.0962V13H32.5962H33.0962V5.39773H32.5962ZM32.5962 13V12.5H30.2098V13V13.5H32.5962V13ZM30.2098 13H30.7098V1.36364H30.2098H29.7098V13H30.2098ZM46.4504 13H45.9504V13.5H46.4504V13ZM46.4504 1.36364V0.863636H45.9504V1.36364H46.4504ZM53.297 1.86932L53.0585 2.30878L53.0606 2.3099L53.297 1.86932ZM54.7175 3.26136L54.2789 3.50158L54.2808 3.5049L54.7175 3.26136ZM53.2629 8.73295L53.0319 8.28952L53.0308 8.29009L53.2629 8.73295ZM48.0527 9.22727H47.5527V9.72727H48.0527V9.22727ZM48.0527 7.25568V6.75568H47.5527V7.25568H48.0527ZM51.7516 7.01136L51.986 7.453L51.988 7.45194L51.7516 7.01136ZM52.4447 6.32386L52.0022 6.09122L52.001 6.09337L52.4447 6.32386ZM52.4447 4.29545L52.001 4.52598L52.0047 4.53285L52.4447 4.29545ZM51.7516 3.61932L51.5193 4.06215L51.5236 4.06434L51.7516 3.61932ZM48.9107 3.375V2.875H48.4107V3.375H48.9107ZM48.9107 13V13.5H49.4107V13H48.9107ZM46.4504 13H46.9504V1.36364H46.4504H45.9504V13H46.4504ZM46.4504 1.36364V1.86364H51.0413V1.36364V0.863636H46.4504V1.36364ZM51.0413 1.36364V1.86364C51.861 1.86364 52.5266 2.02008 53.0585 2.30878L53.297 1.86932L53.5355 1.42986C52.8251 1.04431 51.9868 0.863636 51.0413 0.863636V1.36364ZM53.297 1.86932L53.0606 2.3099C53.6 2.59935 54.0016 2.99532 54.279 3.50157L54.7175 3.26136L55.156 3.02115C54.7818 2.33801 54.2364 1.80595 53.5334 1.42874L53.297 1.86932ZM54.7175 3.26136L54.2808 3.5049C54.5632 4.01132 54.7118 4.60707 54.7118 5.30682H55.2118H55.7118C55.7118 4.46111 55.5308 3.69322 55.1542 3.01783L54.7175 3.26136ZM55.2118 5.30682H54.7118C54.7118 6.00561 54.5618 6.60058 54.2763 7.10661L54.7118 7.35227L55.1473 7.59793C55.5285 6.92215 55.7118 6.15348 55.7118 5.30682H55.2118ZM54.7118 7.35227L54.2763 7.10661C53.993 7.60875 53.5833 8.00229 53.0319 8.28952L53.2629 8.73295L53.4939 9.17639C54.2077 8.80452 54.7639 8.27762 55.1473 7.59793L54.7118 7.35227ZM53.2629 8.73295L53.0308 8.29009C52.4898 8.57362 51.8124 8.72727 50.9788 8.72727V9.22727V9.72727C51.9331 9.72727 52.7784 9.55138 53.495 9.17582L53.2629 8.73295ZM50.9788 9.22727V8.72727H48.0527V9.22727V9.72727H50.9788V9.22727ZM48.0527 9.22727H48.5527V7.25568H48.0527H47.5527V9.22727H48.0527ZM48.0527 7.25568V7.75568H50.5811V7.25568V6.75568H48.0527V7.25568ZM50.5811 7.25568V7.75568C51.1081 7.75568 51.5856 7.66557 51.986 7.45299L51.7516 7.01136L51.5171 6.56974C51.3039 6.68292 51.0011 6.75568 50.5811 6.75568V7.25568ZM51.7516 7.01136L51.988 7.45194C52.3805 7.24133 52.6871 6.94189 52.8884 6.55436L52.4447 6.32386L52.001 6.09337C51.8993 6.28917 51.7439 6.44807 51.5152 6.57078L51.7516 7.01136ZM52.4447 6.32386L52.8873 6.5565C53.0855 6.17943 53.1777 5.75851 53.1777 5.30682H52.6777H52.1777C52.1777 5.62027 52.1146 5.87738 52.0022 6.09122L52.4447 6.32386ZM52.6777 5.30682H53.1777C53.1777 4.8526 53.086 4.43104 52.8848 4.05806L52.4447 4.29545L52.0047 4.53285C52.1141 4.73562 52.1777 4.98831 52.1777 5.30682H52.6777ZM52.4447 4.29545L52.8884 4.06496C52.686 3.67525 52.3765 3.37765 51.9795 3.1743L51.7516 3.61932L51.5236 4.06434C51.7478 4.17917 51.9005 4.33232 52.001 4.52595L52.4447 4.29545ZM51.7516 3.61932L51.9838 3.17651C51.5804 2.96499 51.1001 2.875 50.5697 2.875V3.375V3.875C50.9939 3.875 51.3015 3.94789 51.5194 4.06213L51.7516 3.61932ZM50.5697 3.375V2.875H48.9107V3.375V3.875H50.5697V3.375ZM48.9107 3.375H48.4107V13H48.9107H49.4107V3.375H48.9107ZM48.9107 13V12.5H46.4504V13V13.5H48.9107V13ZM8.17074 23.7102L7.67318 23.7596L7.71787 24.2102H8.17074V23.7102ZM5.16506 22.4318L5.34967 22.8965L5.35511 22.8943L5.16506 22.4318ZM4.52869 22.892L4.12866 22.592L4.125 22.597L4.52869 22.892ZM4.31278 23.5625L4.81245 23.5807L4.81278 23.5716V23.5625H4.31278ZM4.44347 24.108L4.0165 24.3683L4.02121 24.3757L4.44347 24.108ZM4.84687 24.5114L4.56949 24.9274L4.57602 24.9316L4.84687 24.5114ZM5.43778 24.8011L5.26307 25.2697L5.27012 25.2722L5.43778 24.8011ZM6.15369 25.0057L6.26999 24.5193L6.26293 24.5178L6.15369 25.0057ZM7.19915 25.2557L7.08285 25.742L7.08991 25.7436L7.19915 25.2557ZM8.59687 25.7102L8.39305 26.1668L8.39305 26.1668L8.59687 25.7102ZM9.69915 26.4091L10.0316 26.0356L10.0316 26.0356L9.69915 26.4091ZM10.4207 27.3864L9.96554 27.5933L9.9673 27.5971L10.4207 27.3864ZM10.6878 28.6761L11.1878 28.6788L11.1878 28.6722L10.6878 28.6761ZM10.1423 30.5284L9.73048 30.2449L9.73005 30.2455L10.1423 30.5284ZM8.59687 31.7386L8.79195 32.199L8.79321 32.1985L8.59687 31.7386ZM3.71619 31.733L3.52442 32.1947L3.52531 32.1951L3.71619 31.733ZM2.09119 30.4545L1.67772 30.7357L1.6799 30.7389L2.09119 30.4545ZM1.48324 28.3466V27.8466H0.971798L0.983366 28.3579L1.48324 28.3466ZM3.86392 28.3466L4.36277 28.3127L4.33109 27.8466H3.86392V28.3466ZM4.19915 29.3239L3.79979 29.6248L3.80478 29.6312L4.19915 29.3239ZM5.00028 29.9091L4.81548 30.3737L4.82185 30.3762L5.00028 29.9091ZM7.22756 29.9205L7.04578 29.4547L7.04384 29.4554L7.22756 29.9205ZM7.94915 29.4148L8.34159 29.7246L8.34159 29.7246L7.94915 29.4148ZM7.97187 28.0114L7.59108 28.3354L7.59509 28.34L7.97187 28.0114ZM7.30142 27.5568L7.10446 28.0164L7.1066 28.0173L7.30142 27.5568ZM6.22756 27.2159L6.10577 27.7009L6.11038 27.702L6.22756 27.2159ZM4.96051 26.8977L5.08229 26.4128L5.07869 26.4119L4.96051 26.8977ZM2.63665 25.7784L2.30354 26.1513L2.30354 26.1513L2.63665 25.7784ZM1.79006 23.7273L2.29008 23.7295L2.29005 23.7246L1.79006 23.7273ZM2.35256 21.8807L1.94806 21.5868L1.94668 21.5887L2.35256 21.8807ZM8.46051 20.6477L8.252 21.1022L8.25301 21.1026L8.46051 20.6477ZM9.97187 21.8807L9.55907 22.1628L9.55908 22.1628L9.97187 21.8807ZM10.5287 23.7102V24.2102H11.037L11.0286 23.702L10.5287 23.7102ZM8.17074 23.7102L8.6683 23.6609C8.61006 23.0737 8.3501 22.5841 7.88196 22.2394L7.58551 22.642L7.28906 23.0447C7.51032 23.2076 7.64051 23.4301 7.67318 23.7596L8.17074 23.7102ZM7.58551 22.642L7.88196 22.2394C7.42411 21.9023 6.83996 21.7614 6.1821 21.7614V22.2614V22.7614C6.70606 22.7614 7.05752 22.8742 7.28906 23.0447L7.58551 22.642ZM6.1821 22.2614V21.7614C5.73647 21.7614 5.32865 21.824 4.975 21.9693L5.16506 22.4318L5.35511 22.8943C5.55449 22.8124 5.8247 22.7614 6.1821 22.7614V22.2614ZM5.16506 22.4318L4.98046 21.9671C4.63626 22.1039 4.34221 22.3074 4.12869 22.592L4.52869 22.892L4.92869 23.192C5.01063 23.0828 5.14082 22.9795 5.34965 22.8965L5.16506 22.4318ZM4.52869 22.892L4.125 22.597C3.91684 22.8819 3.81278 23.2093 3.81278 23.5625H4.31278H4.81278C4.81278 23.4157 4.85267 23.2961 4.93239 23.1871L4.52869 22.892ZM4.31278 23.5625L3.81311 23.5443C3.80251 23.8359 3.86368 24.1175 4.01657 24.3683L4.44347 24.108L4.87036 23.8477C4.83385 23.7878 4.8079 23.7058 4.81245 23.5807L4.31278 23.5625ZM4.44347 24.108L4.02121 24.3757C4.16117 24.5964 4.3476 24.7794 4.56952 24.9274L4.84687 24.5114L5.12422 24.0953C5.00524 24.016 4.92273 23.9301 4.86572 23.8402L4.44347 24.108ZM4.84687 24.5114L4.57602 24.9316C4.78144 25.064 5.01164 25.1759 5.26309 25.2696L5.43778 24.8011L5.61247 24.3326C5.41696 24.2597 5.25322 24.1784 5.11772 24.0911L4.84687 24.5114ZM5.43778 24.8011L5.27012 25.2722C5.51444 25.3591 5.77274 25.4328 6.04446 25.4936L6.15369 25.0057L6.26293 24.5178C6.02707 24.465 5.80809 24.4022 5.60545 24.3301L5.43778 24.8011ZM6.15369 25.0057L6.03741 25.492L7.08286 25.742L7.19915 25.2557L7.31543 24.7694L6.26998 24.5194L6.15369 25.0057ZM7.19915 25.2557L7.08991 25.7436C7.56879 25.8508 8.00257 25.9925 8.39305 26.1668L8.59687 25.7102L8.8007 25.2537C8.34269 25.0492 7.84466 24.8878 7.30838 24.7678L7.19915 25.2557ZM8.59687 25.7102L8.39305 26.1668C8.77583 26.3377 9.09864 26.5439 9.36668 26.7825L9.69915 26.4091L10.0316 26.0356C9.67845 25.7212 9.2664 25.4616 8.8007 25.2537L8.59687 25.7102ZM9.69915 26.4091L9.36668 26.7825C9.62573 27.0132 9.82423 27.2824 9.96556 27.5933L10.4207 27.3864L10.8759 27.1795C10.6763 26.7404 10.3938 26.3581 10.0316 26.0356L9.69915 26.4091ZM10.4207 27.3864L9.9673 27.5971C10.1067 27.897 10.1845 28.2544 10.1878 28.68L10.6878 28.6761L11.1878 28.6722C11.1835 28.1281 11.0833 27.6257 10.8742 27.1757L10.4207 27.3864ZM10.6878 28.6761L10.1878 28.6735C10.1845 29.298 10.0266 29.8147 9.73048 30.2449L10.1423 30.5284L10.5542 30.8119C10.9777 30.1967 11.1835 29.4785 11.1878 28.6788L10.6878 28.6761ZM10.1423 30.5284L9.73005 30.2455C9.43607 30.674 9.00213 31.0219 8.40054 31.2788L8.59687 31.7386L8.79321 32.1985C9.5401 31.8796 10.1365 31.4207 10.5546 30.8113L10.1423 30.5284ZM8.59687 31.7386L8.4018 31.2783C7.80859 31.5296 7.06991 31.6648 6.17074 31.6648V32.1648V32.6648C7.16551 32.6648 8.04425 32.5158 8.79195 32.199L8.59687 31.7386ZM6.17074 32.1648V31.6648C5.28128 31.6648 4.53062 31.5284 3.90707 31.2708L3.71619 31.733L3.52531 32.1951C4.2957 32.5133 5.18141 32.6648 6.17074 32.6648V32.1648ZM3.71619 31.733L3.90796 31.2712C3.29482 31.0166 2.83293 30.6482 2.50249 30.1702L2.09119 30.4545L1.6799 30.7389C2.12976 31.3896 2.7512 31.8736 3.52442 32.1947L3.71619 31.733ZM2.09119 30.4545L2.50466 30.1734C2.18333 29.7009 2.00035 29.0972 1.98311 28.3353L1.48324 28.3466L0.983366 28.3579C1.00401 29.2702 1.22633 30.0719 1.67773 30.7357L2.09119 30.4545ZM1.48324 28.3466V28.8466H3.86392V28.3466V27.8466H1.48324V28.3466ZM3.86392 28.3466L3.36507 28.3805C3.39686 28.8483 3.53394 29.272 3.79984 29.6248L4.19915 29.3239L4.59845 29.0229C4.47042 28.853 4.38401 28.6252 4.36277 28.3127L3.86392 28.3466ZM4.19915 29.3239L3.80478 29.6312C4.06547 29.9657 4.40794 30.2116 4.8155 30.3737L5.00028 29.9091L5.18507 29.4445C4.92596 29.3414 4.73434 29.1972 4.59351 29.0165L4.19915 29.3239ZM5.00028 29.9091L4.82185 30.3762C5.22499 30.5302 5.6676 30.6023 6.14233 30.6023V30.1023V29.6023C5.76857 29.6023 5.44982 29.5456 5.17872 29.442L5.00028 29.9091ZM6.14233 30.1023V30.6023C6.606 30.6023 7.03281 30.535 7.41127 30.3855L7.22756 29.9205L7.04384 29.4554C6.80867 29.5483 6.51199 29.6023 6.14233 29.6023V30.1023ZM7.22756 29.9205L7.40933 30.3862C7.78522 30.2396 8.10542 30.0237 8.34159 29.7246L7.94915 29.4148L7.55671 29.105C7.45196 29.2376 7.2911 29.3589 7.04578 29.4547L7.22756 29.9205ZM7.94915 29.4148L8.34159 29.7246C8.58313 29.4186 8.70483 29.0609 8.70483 28.6705H8.20483H7.70483C7.70483 28.8406 7.65607 28.9791 7.55671 29.105L7.94915 29.4148ZM8.20483 28.6705H8.70483C8.70483 28.302 8.59204 27.9617 8.34866 27.6827L7.97187 28.0114L7.59509 28.34C7.66232 28.4171 7.70483 28.5161 7.70483 28.6705H8.20483ZM7.97187 28.0114L8.35264 27.6873C8.13541 27.4321 7.83817 27.241 7.49624 27.0963L7.30142 27.5568L7.1066 28.0173C7.35558 28.1226 7.50531 28.2346 7.5911 28.3354L7.97187 28.0114ZM7.30142 27.5568L7.49838 27.0972C7.17336 26.958 6.78692 26.8364 6.34474 26.7298L6.22756 27.2159L6.11038 27.702C6.51668 27.7999 6.84614 27.9057 7.10446 28.0164L7.30142 27.5568ZM6.22756 27.2159L6.34934 26.731L5.08229 26.4128L4.96051 26.8977L4.83873 27.3827L6.10578 27.7009L6.22756 27.2159ZM4.96051 26.8977L5.07869 26.4119C4.15247 26.1866 3.45998 25.8435 2.96975 25.4055L2.63665 25.7784L2.30354 26.1513C2.94967 26.7285 3.80643 27.1316 4.84233 27.3836L4.96051 26.8977ZM2.63665 25.7784L2.96975 25.4055C2.52271 25.0062 2.2868 24.4666 2.29005 23.7295L1.79006 23.7273L1.29006 23.7251C1.28573 24.7076 1.61422 25.5355 2.30354 26.1513L2.63665 25.7784ZM1.79006 23.7273L2.29005 23.7246C2.28678 23.1161 2.44677 22.6059 2.75843 22.1727L2.35256 21.8807L1.94668 21.5887C1.50076 22.2085 1.28576 22.9293 1.29006 23.73L1.79006 23.7273ZM2.35256 21.8807L2.75705 22.1746C3.08185 21.7276 3.53293 21.369 4.12901 21.1048L3.92642 20.6477L3.72383 20.1906C2.98658 20.5173 2.38841 20.9807 1.94806 21.5868L2.35256 21.8807ZM3.92642 20.6477L4.12901 21.1048C4.72229 20.8419 5.40913 20.7045 6.19915 20.7045V20.2045V19.7045C5.2922 19.7045 4.46389 19.8626 3.72383 20.1906L3.92642 20.6477ZM6.19915 20.2045V20.7045C7.00625 20.7045 7.68618 20.8426 8.252 21.1022L8.46051 20.6477L8.66902 20.1933C7.94696 19.862 7.11932 19.7045 6.19915 19.7045V20.2045ZM8.46051 20.6477L8.25301 21.1026C8.82774 21.3648 9.25645 21.72 9.55907 22.1628L9.97187 21.8807L10.3847 21.5986C9.9676 20.9883 9.38873 20.5216 8.66801 20.1928L8.46051 20.6477ZM9.97187 21.8807L9.55908 22.1628C9.85888 22.6015 10.0189 23.1142 10.0288 23.7184L10.5287 23.7102L11.0286 23.702C11.0158 22.9199 10.8046 22.2129 10.3847 21.5986L9.97187 21.8807ZM10.5287 23.7102V23.2102H8.17074V23.7102V24.2102H10.5287V23.7102ZM13.4994 22.392H12.9994V22.892H13.4994V22.392ZM13.4994 20.3636V19.8636H12.9994V20.3636H13.4994ZM23.0562 20.3636H23.5562V19.8636H23.0562V20.3636ZM23.0562 22.392V22.892H23.5562V22.392H23.0562ZM19.4937 22.392V21.892H18.9937V22.392H19.4937ZM19.4937 32V32.5H19.9937V32H19.4937ZM17.0619 32H16.5619V32.5H17.0619V32ZM17.0619 22.392H17.5619V21.892H17.0619V22.392ZM13.4994 22.392H13.9994V20.3636H13.4994H12.9994V22.392H13.4994ZM13.4994 20.3636V20.8636H23.0562V20.3636V19.8636H13.4994V20.3636ZM23.0562 20.3636H22.5562V22.392H23.0562H23.5562V20.3636H23.0562ZM23.0562 22.392V21.892H19.4937V22.392V22.892H23.0562V22.392ZM19.4937 22.392H18.9937V32H19.4937H19.9937V22.392H19.4937ZM19.4937 32V31.5H17.0619V32V32.5H19.4937V32ZM17.0619 32H17.5619V22.392H17.0619H16.5619V32H17.0619ZM17.0619 22.392V21.892H13.4994V22.392V22.892H17.0619V22.392ZM26.8139 32V32.5H27.1771L27.2894 32.1547L26.8139 32ZM24.1776 32L23.7049 31.8368L23.476 32.5H24.1776V32ZM28.1946 20.3636V19.8636H27.8383L27.722 20.2005L28.1946 20.3636ZM31.3651 20.3636L31.8378 20.2007L31.7216 19.8636H31.3651V20.3636ZM35.3764 32V32.5H36.0777L35.8491 31.837L35.3764 32ZM32.7401 32L32.2645 32.1544L32.3767 32.5H32.7401V32ZM29.8253 23.0227L30.3008 22.8683L30.1886 22.5227H29.8253V23.0227ZM29.7344 23.0227V22.5227H29.3712L29.2589 22.868L29.7344 23.0227ZM26.6491 27.4261V26.9261H26.1491V27.4261H26.6491ZM32.8764 27.4261H33.3764V26.9261H32.8764V27.4261ZM32.8764 29.3466V29.8466H33.3764V29.3466H32.8764ZM26.6491 29.3466H26.1491V29.8466H26.6491V29.3466ZM26.8139 32V31.5H24.1776V32V32.5H26.8139V32ZM24.1776 32L24.6502 32.1632L28.6672 20.5268L28.1946 20.3636L27.722 20.2005L23.7049 31.8368L24.1776 32ZM28.1946 20.3636V20.8636H31.3651V20.3636V19.8636H28.1946V20.3636ZM31.3651 20.3636L30.8924 20.5266L34.9037 32.163L35.3764 32L35.8491 31.837L31.8378 20.2007L31.3651 20.3636ZM35.3764 32V31.5H32.7401V32V32.5H35.3764V32ZM32.7401 32L33.2156 31.8456L30.3008 22.8683L29.8253 23.0227L29.3497 23.1771L32.2645 32.1544L32.7401 32ZM29.8253 23.0227V22.5227H29.7344V23.0227V23.5227H29.8253V23.0227ZM29.7344 23.0227L29.2589 22.868L26.3384 31.8453L26.8139 32L27.2894 32.1547L30.2098 23.1774L29.7344 23.0227ZM26.6491 27.4261V27.9261H32.8764V27.4261V26.9261H26.6491V27.4261ZM32.8764 27.4261H32.3764V29.3466H32.8764H33.3764V27.4261H32.8764ZM32.8764 29.3466V28.8466H26.6491V29.3466V29.8466H32.8764V29.3466ZM26.6491 29.3466H27.1491V27.4261H26.6491H26.1491V29.3466H26.6491ZM38.377 32H37.877V32.5H38.377V32ZM38.377 20.3636V19.8636H37.877V20.3636H38.377ZM45.2179 20.8352L44.9921 21.2814L44.9954 21.283L45.2179 20.8352ZM46.644 22.1591L46.2095 22.4065L46.2115 22.41L46.644 22.1591ZM46.6384 26.1591L47.0666 26.4172L47.0674 26.4159L46.6384 26.1591ZM45.1895 27.4318L44.9779 26.9788L44.9769 26.9793L45.1895 27.4318ZM39.8315 27.875H39.3315V28.375H39.8315V27.875ZM39.8315 25.8977V25.3977H39.3315V25.8977H39.8315ZM43.6781 25.7045L43.8696 26.1664L43.8696 26.1664L43.6781 25.7045ZM44.3713 25.125L43.9431 24.8668L43.9403 24.8715L44.3713 25.125ZM44.3713 23.1875L43.9372 23.4356L43.9399 23.4402L44.3713 23.1875ZM43.6724 22.5852L43.4668 23.041L43.4735 23.0439L43.6724 22.5852ZM40.8372 22.375V21.875H40.3372V22.375H40.8372ZM40.8372 32V32.5H41.3372V32H40.8372ZM44.6611 26.7045L45.0999 26.4649L44.9577 26.2045H44.6611V26.7045ZM47.5531 32V32.5H48.3959L47.9919 31.7603L47.5531 32ZM44.8372 32L44.3962 32.2356L44.5375 32.5H44.8372V32ZM42.0077 26.7045V26.2045H41.1736L41.5667 26.9402L42.0077 26.7045ZM38.377 32H38.877V20.3636H38.377H37.877V32H38.377ZM38.377 20.3636V20.8636H42.9679V20.3636V19.8636H38.377V20.3636ZM42.9679 20.3636V20.8636C43.7883 20.8636 44.4568 21.0104 44.9921 21.2813L45.2179 20.8352L45.4437 20.3891C44.7365 20.0312 43.9051 19.8636 42.9679 19.8636V20.3636ZM45.2179 20.8352L44.9954 21.283C45.537 21.5522 45.936 21.9262 46.2096 22.4065L46.644 22.1591L47.0785 21.9116C46.7005 21.248 46.1488 20.7395 45.4404 20.3875L45.2179 20.8352ZM46.644 22.1591L46.2115 22.41C46.4898 22.8898 46.6384 23.4688 46.6384 24.1648H47.1384H47.6384C47.6384 23.3229 47.4573 22.5648 47.0765 21.9082L46.644 22.1591ZM47.1384 24.1648H46.6384C46.6384 24.8644 46.488 25.4367 46.2093 25.9023L46.6384 26.1591L47.0674 26.4159C47.4553 25.7678 47.6384 25.0106 47.6384 24.1648H47.1384ZM46.6384 26.1591L46.2101 25.901C45.9322 26.362 45.5282 26.7218 44.9779 26.9788L45.1895 27.4318L45.4011 27.8848C46.116 27.5509 46.6778 27.0622 47.0666 26.4172L46.6384 26.1591ZM45.1895 27.4318L44.9769 26.9793C44.4308 27.2359 43.7461 27.375 42.9054 27.375V27.875V28.375C43.8525 28.375 44.6906 28.2187 45.4021 27.8844L45.1895 27.4318ZM42.9054 27.875V27.375H39.8315V27.875V28.375H42.9054V27.875ZM39.8315 27.875H40.3315V25.8977H39.8315H39.3315V27.875H39.8315ZM39.8315 25.8977V26.3977H42.5077V25.8977V25.3977H39.8315V25.8977ZM42.5077 25.8977V26.3977C43.0188 26.3977 43.4793 26.3282 43.8696 26.1664L43.6781 25.7045L43.4866 25.2427C43.2557 25.3384 42.9359 25.3977 42.5077 25.3977V25.8977ZM43.6781 25.7045L43.8696 26.1664C44.2674 26.0015 44.5889 25.7413 44.8023 25.3785L44.3713 25.125L43.9403 24.8715C43.8507 25.0239 43.7101 25.15 43.4866 25.2427L43.6781 25.7045ZM44.3713 25.125L44.7995 25.3832C45.013 25.0291 45.1043 24.6139 45.1043 24.1648H44.6043H44.1043C44.1043 24.4808 44.0403 24.7057 43.9431 24.8668L44.3713 25.125ZM44.6043 24.1648H45.1043C45.1043 23.7122 45.0131 23.294 44.8027 22.9348L44.3713 23.1875L43.9399 23.4402C44.0401 23.6113 44.1043 23.8447 44.1043 24.1648H44.6043ZM44.3713 23.1875L44.8054 22.9394C44.5938 22.5692 44.2722 22.3003 43.8714 22.1265L43.6724 22.5852L43.4735 23.0439C43.7015 23.1428 43.8457 23.2755 43.9372 23.4356L44.3713 23.1875ZM43.6724 22.5852L43.8781 22.1295C43.4828 21.9511 43.0149 21.875 42.4963 21.875V22.375V22.875C42.9247 22.875 43.2408 22.939 43.4668 23.041L43.6724 22.5852ZM42.4963 22.375V21.875H40.8372V22.375V22.875H42.4963V22.375ZM40.8372 22.375H40.3372V32H40.8372H41.3372V22.375H40.8372ZM40.8372 32V31.5H38.377V32V32.5H40.8372V32ZM44.6611 26.7045L44.2223 26.9442L47.1143 32.2397L47.5531 32L47.9919 31.7603L45.0999 26.4649L44.6611 26.7045ZM47.5531 32V31.5H44.8372V32V32.5H47.5531V32ZM44.8372 32L45.2782 31.7644L42.4487 26.4689L42.0077 26.7045L41.5667 26.9402L44.3962 32.2356L44.8372 32ZM42.0077 26.7045V27.2045H44.6611V26.7045V26.2045H42.0077V26.7045ZM50.0338 22.392H49.5338V22.892H50.0338V22.392ZM50.0338 20.3636V19.8636H49.5338V20.3636H50.0338ZM59.5906 20.3636H60.0906V19.8636H59.5906V20.3636ZM59.5906 22.392V22.892H60.0906V22.392H59.5906ZM56.0281 22.392V21.892H55.5281V22.392H56.0281ZM56.0281 32V32.5H56.5281V32H56.0281ZM53.5963 32H53.0963V32.5H53.5963V32ZM53.5963 22.392H54.0963V21.892H53.5963V22.392ZM50.0338 22.392H50.5338V20.3636H50.0338H49.5338V22.392H50.0338ZM50.0338 20.3636V20.8636H59.5906V20.3636V19.8636H50.0338V20.3636ZM59.5906 20.3636H59.0906V22.392H59.5906H60.0906V20.3636H59.5906ZM59.5906 22.392V21.892H56.0281V22.392V22.892H59.5906V22.392ZM56.0281 22.392H55.5281V32H56.0281H56.5281V22.392H56.0281ZM56.0281 32V31.5H53.5963V32V32.5H56.0281V32ZM53.5963 32H54.0963V22.392H53.5963H53.0963V32H53.5963ZM53.5963 22.392V21.892H50.0338V22.392V22.892H53.5963V22.392Z" fill="white" mask="url(#path-1-outside-1_57_2)"/>
</svg>
